<svg width="102" height="116" viewBox="0 0 102 116" xmlns="http://www.w3.org/2000/svg"><title>bird</title><desc>Created with Sketch.</desc><g fill="#404A49"><path d="M99.851 91.344c-.054-1.016-.131-2.037-.123-3.046.031-1.923.027-3.786-.073-5.651.127.858.242 1.697.292 2.539.151 1.873.158 3.969-.096 6.158m-11.325-4.27c-.019-.211.285-.289.353-.084.983 2.78.127 6.35-1.84 8.521-.169.185-.485-.011-.379-.247 1.267-2.724 2.132-5.134 1.866-8.19m-13.694 4.967l.025.201c0 .433-.356.791-.796.791-.435 0-.793-.358-.793-.791 0-.254.119-.474.308-.619-.821.07-1.472.723-1.522 1.545l-.012-.204c0-1.094.891-1.996 1.993-1.996 1.096 0 1.986.902 1.986 1.996 0 1.102-.89 1.99-1.986 1.99l-.212-.006c.87-.063 1.568-.778 1.568-1.67 0-.493-.224-.932-.559-1.237m5.915-13.763c-.299-.983-.702-1.933-1.042-2.898-.08-.275.273-.451.441-.243 1.375 1.753 2.982 5.254 1.017 7.121-.065.054-.145.023-.131-.065.031-.424.046-.843.06-1.249-.174 1.31-.813 2.634-1.642 3.51-.206.235-.566-.002-.453-.285.754-1.817 1.428-3.398 1.415-5.402-.004-.247.335-.337.433-.094l.047.115-.145-.51m-10.52 28.635l.336-.287c.108.057.243.057.373-.033l.01.006c-.21.204-.456.254-.719.314m28.595-23.279c-.135 3.35-.959 7.851-2.354 11.002-.093-2.367-.482-4.756-1.125-6.932-.058-.192-.359-.163-.351.039.189 2.659.501 9.225-1.545 12.852-.189.326 1.468-4.936 1.002-7.831-.031-.204-.366-.193-.405 0-.586 2.98-1.325 5.654-2.801 8.317-.374.316-1.36 2.337-2.008 2.929-2.427 2.208-13.28 4.517-10.519 1.968l.035-.138c1.84-3.106 4.138-5.919 5.912-9.071l.174-.285c-.22.264-.441.52-.674.74-.249.239-.605.106-.663-.166-2.626 5.705-7.583 11.556-15.85 13.286.241-.231.452-.474.615-.728l.14-.065c.72-.338 1.187-1.008 1.838-1.48l.015-.131c.207-.447.548-.821.694-1.295.115-.353.168-.72.189-1.087-.332-.173-.617-.448-.815-.845-.099.254-.218.491-.349.726l.002.15-.037.01-.081.046c-.45.769-1.032 1.422-1.668 2.038-.181.208-.362.418-.563.617l-.023.09c-.82 1.193-2.032 2.208-3.174 3.149l-.228.327c-.333.289-.994.532-1.025.534l-.069.05-.039-.027c.006 0-.545.447-.574.422l.551-2.251.085-.329.108-.058c.169-.231 1.838-3.464 2.069-3.932.031-.061.011-.119-.031-.164l.017-.034-.021.019c-.054-.046-.14-.052-.212 0-.545.458-.955.931-1.36 1.489-.004.006-4.1 3.46-4.1 3.46 0-.011.912-7.007 1.264-8.136.098-.366.191-.678.32-.92-.081-.143-.077-.351.096-.457l.039-.033c.03-.21.277-.327.458-.302.1.017.174.054.255.111.065.043.1.121.127.199h.131l.004-.037h.475l.087-.013.1.013c1.927.006 4.046.073 4.875.696.188.136.4.337.622.564.04.153.389.087.472.164.455.393 1.052 1.181 1.179 1.221-.208-.73-.208-1.52-.081-2.291.01.583.432 1.503.675 2.027.175.355 1.4.488 1.086.026-.314-.45-.678-.871-1.083-1.262-.111-.332-.188-.675-.215-1.025-.02-.303-.463-.303-.476 0l.013.215-.127-.026c.066-.234.102-.467.034-.715-.111-.434-.444-.7-.774-.962-.023-.087-.065-.171-.171-.25l-.106-.092-.139-.074c-.487-.281-1.26-.512-1.653-.112-.285.29-.547.577-.867.823-3.959.401-6.645-1.751-6.705-1.824-.262-.278-.508-.583-.739-.895-.259-.835-.748-1.65-1.064-2.412l-.42-.976c-.081-.482-.15-.969-.177-1.478l-.067-1.189c.059-.476.14-.944.281-1.425-.014-.522.029-1.027.15-1.528.653-2.705 2.518-5.131 4.502-7.04l.313-.293-.012-.075c.487-1.584 2.672-2.901 4.002-3.714l.015-.016.653-.503c2.239-1.89 4.878-3.448 6.123-1.734l.528-.05.069-.036.043-.004.186-.095.927-.212c.21-.038.368.137.413.315.265.021.527.042.799.082.166-.002.229.206.156.336 5.851 0 2.462 3.577 1.208 5.309-1.387 1.902-1.732 3.975-1.553 4.84.166.871-.179 2.597-.697 2.771-2.603.169-6.572 3.633-3.979 6.403 2.599 2.771 6.745.698 6.401-3.119 1.383.349 1.558-1.377 1.211-2.241l-.352-.874s.524-.863 1.052-1.896c.516-1.037 4.273-5.313 6.018-1.956.594.48 1.071 1.206 1.37 1.981 2.532 1.599.471 6.84-.503 8.803-1.537 3.09-3.529 5.824-5.594 8.529 1.545-1.516 2.807-3.054 3.664-3.402.451-.184 1.046-.43 1.595-.669l.293-.204c.782-1.006 1.638-1.958 2.443-2.925-.102-.138-.127-.327 0-.493.726-1.326 1.368-2.576 1.811-3.963-.008-1.004.029-2.019-.054-3.017-.106-1.389-.362-2.645-.832-3.872-1.148-2.262-2.601-4.802-4.106-6.776-2.78-3.636-12.505-8.25-22.175-1.552l.329-.491c-1.005.784-1.969 1.646-2.849 2.578-1.108 1.183-2.133 2.472-3.019 3.867-.289.53-.595 1.065-.921 1.578l-.027.063c.187-.834.374-1.676.609-2.508 1.333-1.898 2.851-3.703 4.308-5.466.312-.356.633-.713.975-1.056.585-.462 1.206-.911 1.853-1.329.349-.418.705-.805 1.036-1.158l.68-.721c.022-.154.102-.31.261-.437.171-.134.342-.243.524-.345.177-.143.342-.304.504-.476l.151-.115c.308-.281.622-.551.944-.805-1.035-.074-2.013-.128-3.002.119-1.83 1.032-3.545 2.493-4.84 3.762l-.036-.558-.096.104-.026-.025.12-.122c-.021-.263-.031-.52-.062-.788.064-.36.17-.724.308-1.076l.197-.234.416-.416c1.384-2.308 3-5.342 5.029-7.631-1.372.418-2.69 1.042-3.85 2.063-1.148 1.017-2.096 2.206-3.128 3.327-.401.579-.939 1.255-1.567 2.002l-.04-.104c-.309.771-.649 1.532-1.203 2.144-.165.184-.489.193-.682.053-.614 1.549-1.109 3.144-1.418 4.728-.019.117-.212.121-.208 0 .056-2.609.503-4.775 1.765-7.079.177-.335.374-.653.564-.957.251-.538.523-1.064.762-1.559l.142-.275c-.079-.424-.424-.781-.836-.873.694-.765 1.466-1.451 2.273-2.073.282-.407.605-.79.945-1.158.753-1.048 1.575-2.008 2.516-2.813-2.212-.016-4.346 1.137-6.054 2.678l-.349.04c-.298.026-.489.166-.595.38-.522.235-.986.601-1.36 1.062-.115.044-.235.096-.339.177-.345.27-.636.582-.89.899l-.179-.149c.423-.554.849-1.11 1.298-1.667.834-.985 1.69-2.05 2.624-3.069.214-.019.364-.133.355-.397 1.491-1.567 3.15-2.975 5.08-3.755 2.734-1.116 5.899-.944 8.884-.838 1.212.815 2.229 1.895 3.46 2.695.179.11.426-.125.304-.314-.554-.865-1.225-1.641-1.982-2.318l.335.006.933.002c1.368.863 2.641 1.913 3.922 2.906.682.635 1.364 1.286 2.063 1.895.089.073.22-.015.163-.113l-.382-.677c.079-.06.127-.164.089-.266-.261-.701-.711-1.293-1.266-1.813-.231-.339-.49-.672-.798-1.011l.65.191c.595.568 1.167 1.165 1.722 1.661 2.051 1.824 3.216 4.604 4.541 6.925.136.245.458.066.42-.175-.328-2.001-1.366-3.853-2.624-5.496.108-.045.17-.147.123-.282-.202-.688-.584-1.257-.99-1.819l.52.051.426.564c.946 1.266 1.541 2.883 2.888 3.796.235.171.433-.139.349-.349-.475-1.09-1.133-2.206-1.867-3.219.25.158.504.314.743.489 1.488.84 2.865 1.871 4.135 2.888 1.283 1.034 10.226 5.522 9.648 21.008m-45.29 11.07c-.264-.591-.474-1.214-.663-1.846-.031.131-.231.168-.289.047-.065.092-.172.159-.332.128-.377-.057-.446-.57-.444-.864.002-.845.069-1.679.136-2.52-.034-.401-.058-.796-.052-1.201l.014-.052-.116-.653.018-.006.227.561c.063 0 .131.037.138.127l.004.033c.114-.027.285.044.31.187.208.992.519 1.888.594 2.859.285 1.048.512 2.115.686 3.15.019.139-.178.168-.231.05m-1.183 4.838c-1.058-1.47-1.515-3.331-2.019-5.054-.521-1.77-.987-3.578-1.29-5.406-.562-3.456-.789-7.242.978-10.409.096-.172.396-.102.344.109-.329 1.16-.489 2.351-.53 3.547.552 2.187.775 4.437 1.145 6.651.332 1.951.788 3.876 1.179 5.805l.035.116c.447 1.412.974 2.849.978 4.338.004.439-.541.699-.82.303m-3.821-8.468c-.195-.468-.356-.958-.51-1.453-.023.253-.05.501-.105.746-.084.393-.689.626-.916.208-.917-1.678-1.097-3.747-1.372-5.616-.316-2.187-.613-4.379-.648-6.589-.05-3.876.509-7.698 3.016-10.789.098-.131.321.006.238.154-.957 1.833-1.42 3.877-1.579 5.971.102-.557.221-1.119.383-1.682.043-.178.343-.141.297.064-.731 3.292-.572 6.694-.016 9.999.501 2.944 1.542 5.883 1.771 8.862.017.328-.44.432-.559.125m-6.113-32.284c-.245.108-.481.249-.686.459-.372.768-.749 1.539-1.094 2.315-.42 1.838-.199 3.832-.428 5.674l-.077.122c.023.393.054.811.085 1.219.017.206-.281.289-.359.083-.098-.255-.165-.52-.238-.778l.092.928c.012.056-.038.125-.094.149l.318 2.853-.031.083c.558 2.009 1.252 3.98 1.872 5.876.049.168-.198.272-.261.1-1.093-2.944-2.178-5.942-2.748-9.038-.52-2.822-.857-6.037.54-8.675 1.08-2.027 2.928-3.574 5.317-2.597 2.169.874 4.061 2.593 5.395 4.524.338.331.654.626.939.866.108.102-.009.297-.138.214l-.405-.265c-.05.161-.235.263-.396.125l-.228-.195c-.021.266-.377.451-.553.176-1.358-2.127-4.458-4.715-6.822-4.218m-2.79 28.04c-3.375-3.429-5.675-8.048-7.107-12.633-.341-1.11-.634-2.208-.876-3.321-.548-4.032-.862-7.88-1.048-10.893.136.017.267.106.308.279.913 4.423 2.098 8.937 3.541 13.234 1.512 4.456 3.857 8.396 6.094 12.509.306.57-.372 1.376-.912.825m-5.56-28.944c.118-.198.472-.109.405.133-.243.949-.416 1.927-.488 2.904-.055.871 0 1.774-.21 2.631-.034.182-.348.261-.399.029-.402-1.747-.177-4.099.692-5.697m2.91-3.608c1.251-2.485 3.51-4.869 6.511-4.803 2.819.052 5.674 1.643 7.26 3.995.181.214.354.454.52.669.57.792 1.318 1.698 1.553 2.655l.008.035.127.181c.304.412.631.705.73 1.198l-.052.051c-.364-.099-.584-.321-.786-.598l.011.046c.05.141-.111.243-.233.162-.703-.491-1.208-1.358-1.739-2.083l-.085-.025c-.663-.625-1.253-1.277-1.873-1.899l-.911-.865c-.526-.453-1.089-.875-1.748-1.224-.628-.329-1.368-.679-2.146-.929-.507-.08-1.035-.088-1.599 0-3.214.556-4.949 3.64-5.737 6.549-1.727 6.333-.852 13.716 1.711 19.707.055.106-.12.174-.172.07-3.118-6.647-4.83-16.034-1.35-22.892m1.102-18.095c.161.17 2.82 5.911 3.798 8.801-.635.127-1.236.493-1.775.946-.186.031-.373.12-.533.287l-.053.052c-.913.341-1.896 1.218-2.83 2.828-1.84 3.229 0-14.299 1.393-12.914m13.607 5.998c-.688.684-4.608-1.16-5.069-.226-.466.91-5.075-1.855-5.772-6.005-.505-3.03 11.534 5.541 10.841 6.231m-1.15-3.923c3.306 3.684 7.845 4.152 12.921 5.31.361.077.73.172 1.108.279.116.28.432.465.734.49 1.798.142 2.567 1.949 4.218 2.339.944.215 1.861.462 2.755.811.162.329-.043.584-.744.691-2.998.465-10.381-1.389-13.382-2.762-2.998-1.395-9.689-9.466-7.61-7.158m14.85 3.524l-.435-.118c-4.433-1.048-8.003-2.288-11.02-3.677 4.242 1.134 8.056 2.414 11.455 3.795m7.454 3.483l-.133-.056-.362-.208.495.264m7.494 8.747c-.294-.096-.601-.19-.913-.26-.379-.071-.768-.137-1.155-.177-.906-.335-1.798-.594-2.732-.873-1.083-.339-2.322-.187-3.435-.383-1.497-.251-3.037-.303-4.58-.185-1.274-.28-2.619-.494-4.298-.494-3.931 0-12.685-7.388-10.377-6.224 2.766 1.373 6.227 2.071 10.839 3.227 4.612 1.154 10.149 1.154 12.46 2.529 1.414.858 3.342 2.045 4.191 2.84m3.642-1.013c-.175-.085-.351-.156-.53-.218-.457-.353-.923-.692-1.393-1.041-.441-.414-.888-.826-1.387-1.179-.27-.273-.542-.543-.819-.799-.426-.393-.838-.711-1.333-.979l-.106-.144c2.133 1.445 3.977 2.909 5.568 4.36m-54.694-18.23c-.251.748-.513 1.609-1.006 2.246l-.489.203c-.064-.016-.134-.031-.17-.087-.042-.073-.042-.154-.037-.246l.01-.106.063-.197c-.131-.048-.216-.164-.173-.339l.206-.69c-.058-.391.139-.851.282-1.225 0-.175-.006-.347-.032-.518l-.026-.004c-.149-.025-.257-.126-.257-.318-.013-.561-.144-1.112-.106-1.653l-.002-.089c-.14-.616-.273-1.238-.352-1.868-.019-.151.05-.266.154-.336-.185-.564-.36-1.125-.499-1.685-.071-.284.332-.563.491-.255.821 1.505 1.75 3.098 2.041 4.728.056.023.102.068.133.127.385.694-.006 1.62-.231 2.312m-4.162-4.131c-3.522-4.252-7.113-8.284-11.039-12.164l-.532-.516c-.092.021-.189.009-.274-.081-.331-.349-.643-.731-.948-1.121-1.317-1.293-2.639-2.592-3.934-3.904-.62-.618-1.248-1.248-1.869-1.886.736.027 1.49.041 2.15-.171.432-.145.436-.737.008-.898.247.03.489.046.734.053.709.962 1.393 1.96 2.065 2.925l.216.31.035.025c.772.815 1.566 1.605 2.371 2.393.729.725 1.473 1.459 2.07 2.293.169.231.308.476.428.715 2.404 2.021 4.639 4.194 6.107 6.999.069.135-.033.245-.166.281 1.106 1.437 2.093 2.96 2.902 4.576.104.198-.205.324-.324.171m-12.419-20.202l.062-.019c.404.071.815.125 1.223.108.291.069.592.152.89.238 1.097 1.338 2.227 2.709 3.131 4.172 1.876 3.05 3.972 5.955 5.789 9.035.091.163-.11.384-.248.234-2.125-2.274-4.032-4.826-5.859-7.354l-.412-.478-.025-.017-.039-.053c-1.495-1.728-2.955-3.494-4.481-5.191-.133-.147-.44-.436-.786-.771.25.036.505.075.755.096m4.323-4.504c-.05-.343-.144-.812-.15-1.272.065.085.146.158.239.229.042.037 1.083-2.4 1.123-2.423-.057.734-.873 4.017-.869 4.687.008.324-.007.638-.036.935-.01-.218-.044-.424-.073-.636l-.072-.547-.003-.023v-.002l-.012-.083-.147-.865m84.652 79.116c-.667-8.789-4.431-18.282-10.583-26.768-5.343-7.366-16.642-17.301-40.134-22.832l-2.099-.214c-.421-.276-.84-.54-1.23-.812-.333-.115-.656-.239-.974-.373l-2.332-2.108-1.757-.836c-3.558-3.952-6.446-8.606-9.426-12.993.279 1.664.541 3.336.601 5.015.004.225-.31.254-.342.036-.292-2.032-.751-4.086-.99-6.15-.74-1.084-1.464-2.213-2.233-3.3l-.144-.142c-.251 1.217-.526 2.435-.887 3.608-.069.235-.381.174-.373-.064.033-.604.104-1.209.192-1.832-.08-.996-.148-1.996-.192-2.999l-.251-.254-.462-.457c-.293-1.274-8.994-11.338-10.916-10.787-3.41.969-.014 7.887 0 7.974-2.848-.786-7.003-.825-8.97-.825-3.603 0-7.626.665-7.923 1.451-.934 2.499 3.888 5.541 12.514 11.881 9.11 6.703 12.332 12.223 14.393 17.371l3.748-.952c.008.362-2.769 13.721-2.803 15.37-.099 3.717-.552 7.345-.132 11.059.438 3.815 1.187 7.582 2.266 11.265.285 1.119.607 2.175.967 3.177 6.896 21.064 21.933 29.417 26.597 32.016 0 0-.38 4.848.476 4.377.142-.073 2.972-2.809 2.972-2.809s-.764 2.983-.31 3.436c.31.312 4.919-2.669 4.919-2.669l1.628-.262c3.289.852 13.935.979 21.443-3.635 9.248-5.684 13.452-14.781 12.747-23.963M61.444 105.944c-.264.491-.275.996-.035 1.124.253.134.665-.157.929-.65s.279-.996.029-1.133c-.243-.127-.655.168-.923.659"/></g></svg>