<svg version="1.1"
      xmlns="http://www.w3.org/2000/svg"
      xmlns:xlink="http://www.w3.org/1999/xlink"  id="snapshot-30339" width="250" height="250" viewBox="0 0 250 250"><desc>This image was made on Patterninja.com</desc><defs>
<!-- image 65142 -->
<g id="transformed-65142" data-image="65142" transform="translate(-63.56099432828282, -63.56099432828281) rotate(335, 63.56099432828282, 63.56099432828281)"><g><svg version="1.1" width="127.12198865656563px" height="127.12198865656562px" viewBox="0 0 127.12198865656563 127.12198865656562"><g id="original-65142"><svg xmlns="http://www.w3.org/2000/svg" viewBox="0 0 400 400" xmlns:xlink="http://www.w3.org/1999/xlink" version="1.1" preserveAspectRatio="xMidYMid meet">
  <circle cx="201.6" cy="173.8" r="6.4" fill="rgba(238, 238, 238, 0.5)" stroke="none"/>
  <circle cx="201.6" cy="196" r="6.4" fill="rgba(238, 238, 238, 0.5)" stroke="none"/>
  <circle cx="201.6" cy="216.7" r="6.4" fill="rgba(238, 238, 238, 0.5)" stroke="none"/>
  <circle cx="217.2" cy="90" r="6" fill="rgba(238, 238, 238, 0.5)" stroke="none"/>
  <circle cx="184" cy="90" r="6" fill="rgba(238, 238, 238, 0.5)" stroke="none"/>
  <path d="M217.2 103c-2.8 0-5 2.2-5 5 0 6.4-5.2 11.6-11.6 11.6-6.4 0-11.6-5.2-11.6-11.6 0-2.8-2.2-5-5-5s-5 2.2-5 5c0 11.9 9.7 21.6 21.6 21.6 11.9 0 21.6-9.7 21.6-21.6 0-2.7-2.2-5-5-5z" fill="rgba(238, 238, 238, 0.5)" stroke="none"/>
  <path d="M263.7 146.3h-31.2c12.6-9.6 20-24.5 20-40.8 0-28.4-23.1-51.5-51.5-51.5s-51.5 23.1-51.5 51.5c0 16 7.6 31.1 20.1 40.8h-34.1c-15.1 0-27.4 12.3-27.4 27.4 0 15.1 12.3 27.4 27.4 27.4h20.6l-17.9 111.3c-1.2 7.2.6 14.4 4.9 20.4 4.3 5.9 10.6 9.8 17.8 11 7.2 1.2 14.4-.6 20.4-4.9 5.9-4.3 9.8-10.6 11-17.8l7.6-47.1 7.6 47.1c1.2 7.2 5.1 13.5 11 17.8 4.7 3.4 10.3 5.2 16 5.2 1.5 0 2.9-.1 4.4-.4 7.2-1.2 13.5-5.1 17.8-11 4.3-5.9 6-13.2 4.9-20.4l-1.1-6.6c0-.3 0-.6-.1-.8 0-.2-.1-.4-.2-.6L243.6 201h20c15.1 0 27.4-12.3 27.4-27.4 0-15-12.2-27.3-27.3-27.3zm-145.5 27.4c0-8.1 5.6-14.9 13.1-16.8v33.6c-7.6-1.9-13.1-8.7-13.1-16.8zm57.2 157.1c-3.8 2.7-8.4 3.8-12.9 3.1-4.6-.7-8.6-3.2-11.3-7-2.7-3.8-3.8-8.4-3.1-12.9l.5-3.1 34.2 6.2-.4 2.4c-.7 4.5-3.2 8.5-7 11.3zm73.1-3.9c-2.7 3.8-6.7 6.3-11.3 7-4.6.7-9.1-.4-12.9-3.1-3.8-2.7-6.3-6.7-7-11.3l-.3-1.6 34.2-6.2.4 2.3c.7 4.5-.4 9.1-3.1 12.9zm-15.7-130.1l16.9 105-34.2 6.2-10.7-66.3c-.4-2.4-2.5-4.2-4.9-4.2-2.5 0-4.5 1.8-4.9 4.2l-10.5 65.5-34.2-6.2L167 196.8c.2-1.4-.2-2.9-1.1-4-.9-1.1-2.3-1.8-3.8-1.8h-20.8v-34.7h36c2.8 0 5-2.2 5-5v-5.8c0-1.8-.9-3.4-2.4-4.3-12.5-7.5-20.3-21.1-20.3-35.7 0-22.9 18.6-41.5 41.5-41.5s41.5 18.6 41.5 41.5c0 15.8-8.8 30-23 37.1-1.7.8-2.8 2.6-2.8 4.5v4.2c0 2.8 2.2 5 5 5h35.5V191h-19.5c-1.5 0-2.9.6-3.8 1.8-1 1.1-1.5 2.6-1.2 4zm34.4-6.1v-34c7.9 1.6 13.8 8.6 13.8 17 0 8.3-5.9 15.3-13.8 17z" fill="rgba(238, 238, 238, 0.5)" stroke="none"/>
</svg>
</g></svg></g></g>
<!-- /image 65142 -->

<!-- image 64456 -->
<g id="transformed-64456" data-image="64456" transform="translate(71.7505364831572, 56.75053648315721) rotate(11, 58.249463516842795, 58.24946351684279)"><g><svg version="1.1" width="116.49892703368559px" height="116.49892703368558px" viewBox="0 0 116.49892703368559 116.49892703368558"><g id="original-64456"><svg xmlns="http://www.w3.org/2000/svg" viewBox="0 0 400 400" xmlns:xlink="http://www.w3.org/1999/xlink" version="1.1" preserveAspectRatio="xMidYMid meet">
  <path d="M258.9 119.7c-7.9-16.3-23-29-41.5-34.7-34.3-10.6-70.9 8.6-81.6 43-.3.8-1.7 5-2.2 8-.7 4.2-1.2 13.7-.1 20.8v.2l.8 4.1c1.6 11.8 12.4 20.2 24.3 18.8 11.9-1.5 20.4-12.4 18.9-24.3l-.4-3c0-.2-.1-.5-.1-.7-1.1-4.1 0-8.9 0-8.9 1.5-5.9 5.2-10.8 10.4-13.9 4.9-2.9 10.5-3.8 16-2.7.2.1.4.2.6.2.4.1.8.2 1.1.2 6 1.7 11.3 6.1 14.3 11.8 2.7 5.1 3.3 10.5 1.6 15.2-5 14.1-49.3 124.6-55.2 139.3-.5.7-.9 1.6-.9 2.5-3.6 10.5 1.7 22.1 12.2 26.2 2.5 1 5.1 1.4 7.6 1.4 8.4 0 16.3-5 19.5-13.3l56-143c6.4-15.9 5.9-32.2-1.3-47.2zm-55.1 164.2l-25.5 5.3c1.4-3.4 3-7.6 5-12.4.2 0 .5 0 .7-.1l24.6-5.2-4.8 12.4zm9.1-23.4l-25.3 5.3c1.9-4.6 3.8-9.6 5.9-14.7l25.2-5.3-5.8 14.7zm10.1-25.8l-25.1 5.3c1.8-4.5 3.6-9.1 5.5-13.7l25-5.2-5.4 13.6zm9.8-24.8l-24.9 5.2c1.9-4.8 3.8-9.6 5.6-14.2.3 0 .5 0 .8-.1l24-5-5.5 14.1zm-21.3-91.4l6.3-22.7c6.8 2.6 13.1 6.2 18.3 10.8l-17 16.5c-2.2-1.9-4.8-3.5-7.6-4.6zm31.1 66.2l-24.8 5.2c2.2-5.7 4.3-10.9 6.1-15.5l24.8-5.2-6.1 15.5zm8.7-26.3l-23 4.8c1-2.7 1.8-4.8 2.3-6 .9-2.6 1.4-5.3 1.5-8.1l22.4-8.4c.5 5.8-.1 11.7-1.8 17.6-.5 0-.9 0-1.4.1zm1.2-27.7l-22 8.3c-.6-1.7-1.3-3.4-2.2-5.1-.7-1.3-1.4-2.4-2.2-3.6l17.1-16.6c2.6 3.2 4.9 6.7 6.6 10.4 1.1 2.2 2 4.4 2.7 6.6zm-107.2.3c1.9-6.3 4.9-11.9 8.7-16.9l16.7 18.2c-1.5 2.5-2.6 5.3-3.3 8.2-.1.2-.2 1-.4 2.2l-21.9-10.9c.1-.3.2-.5.2-.7v-.1zm12.1 39c-6.5.8-12.4-3.8-13.2-10.2 0-.1 0-.2-.1-.3l-.8-4.1c-.6-4.1-.6-9.3-.3-13.3l24.3 12.1.3 2.7c.8 6.4-3.8 12.3-10.2 13.1zm19.7-45.5l-16.3-17.7c5.6-5.1 12.1-9 19.2-11.5l4.6 24.1c-.7.4-1.4.7-2.1 1.1-2 1.2-3.8 2.5-5.4 4zm17-8.2l-4.5-23.5c6.1-1 12.3-.9 18.6.3l-6.4 23c-1-.1-1.9-.1-2.9-.1-1.6 0-3.2.1-4.8.3zm-13.3 196.3c-5-2-7.7-7.2-6.8-12.2l25.4-5.3-4.4 11.4c-2.3 5.5-8.6 8.3-14.2 6.1z" fill="rgba(238, 238, 238, 0.5)" stroke="none"/>
</svg>
</g></svg></g></g>
<!-- /image 64456 -->
</defs><rect x="0" y="0" width="250" height="250" fill="rgba(250, 250, 250, 1)"></rect><use xlink:href="#transformed-65142" transform="translate(-250, -250)"></use><use xlink:href="#transformed-65142" transform="translate(0, -250)"></use><use xlink:href="#transformed-65142" transform="translate(250, -250)"></use><use xlink:href="#transformed-65142" transform="translate(-250, 0)"></use><use xlink:href="#transformed-65142" transform="translate(0, 0)"></use><use xlink:href="#transformed-65142" transform="translate(250, 0)"></use><use xlink:href="#transformed-65142" transform="translate(-250, 250)"></use><use xlink:href="#transformed-65142" transform="translate(0, 250)"></use><use xlink:href="#transformed-65142" transform="translate(250, 250)"></use><use xlink:href="#transformed-64456" transform="translate(-250, -250)"></use><use xlink:href="#transformed-64456" transform="translate(0, -250)"></use><use xlink:href="#transformed-64456" transform="translate(250, -250)"></use><use xlink:href="#transformed-64456" transform="translate(-250, 0)"></use><use xlink:href="#transformed-64456" transform="translate(0, 0)"></use><use xlink:href="#transformed-64456" transform="translate(250, 0)"></use><use xlink:href="#transformed-64456" transform="translate(-250, 250)"></use><use xlink:href="#transformed-64456" transform="translate(0, 250)"></use><use xlink:href="#transformed-64456" transform="translate(250, 250)"></use></svg>