<svg width="285" height="300" viewBox="0 0 285 300" xmlns="http://www.w3.org/2000/svg"><title>Rectangle</title><desc>Created with Sketch.</desc><g fill="none"><path d="M0 0h285v300h-285z"/><g fill="#404A49" fill-rule="nonzero"><path d="M185.926 123.175c-.059-1.124-.143-2.253-.134-3.369.034-2.127.029-4.187-.08-6.25.139.949.264 1.877.319 2.808.165 2.071.173 4.389-.105 6.81m-12.371-4.722c-.021-.233.311-.32.386-.093 1.074 3.074.139 7.023-2.01 9.424-.185.205-.53-.012-.414-.273 1.384-3.013 2.329-5.678 2.038-9.058m-14.959 5.493l.027.222c0 .479-.389.875-.87.875-.475 0-.866-.396-.866-.875 0-.281.13-.524.336-.685-.897.077-1.608.8-1.663 1.709l-.013-.226c0-1.21.973-2.207 2.177-2.207 1.197 0 2.169.998 2.169 2.207 0 1.219-.972 2.201-2.169 2.201l-.232-.007c.95-.07 1.713-.86 1.713-1.847 0-.545-.245-1.031-.611-1.368m6.461-15.221c-.327-1.087-.767-2.138-1.138-3.205-.087-.304.298-.499.482-.269 1.502 1.939 3.257 5.811 1.111 7.875-.071.06-.158.025-.143-.072.034-.469.05-.932.066-1.381-.19 1.449-.888 2.913-1.794 3.882-.225.26-.618-.002-.495-.315.824-2.009 1.56-3.758 1.546-5.974-.004-.273.366-.373.473-.104l.051.127-.158-.564m-11.492 31.668l.367-.317c.118.063.265.063.407-.036l.011.007c-.229.226-.498.281-.785.347m31.236-25.745c-.147 3.705-1.048 8.683-2.571 12.167-.102-2.618-.527-5.26-1.229-7.666-.063-.212-.392-.18-.383.043.206 2.941.547 10.202-1.688 14.213-.206.361 1.604-5.459 1.095-8.661-.034-.226-.4-.213-.442 0-.64 3.296-1.447 6.253-3.06 9.198-.409.349-1.486 2.585-2.193 3.239-2.651 2.442-14.506 4.995-11.49 2.176l.038-.153c2.01-3.435 4.52-6.546 6.458-10.032l.19-.315c-.24.292-.482.575-.736.818-.272.264-.661.117-.724-.184-2.869 6.309-8.283 12.78-17.314 14.693.263-.255.494-.524.672-.805l.153-.072c.786-.374 1.297-1.115 2.008-1.637l.016-.145c.226-.494.599-.908.758-1.432.126-.39.184-.796.206-1.202-.363-.191-.674-.495-.89-.935-.108.281-.238.543-.381.803l.002.166-.04.011-.088.051c-.492.85-1.127 1.573-1.822 2.254-.198.23-.395.462-.615.682l-.025.1c-.896 1.319-2.22 2.442-3.467 3.483l-.249.362c-.364.32-1.086.588-1.12.591l-.075.055-.043-.03c.007 0-.595.494-.627.467l.602-2.489.093-.364.118-.064c.185-.255 2.008-3.831 2.26-4.349.034-.067.012-.132-.034-.181l.019-.038-.023.021c-.059-.051-.153-.058-.232 0-.595.507-1.043 1.03-1.486 1.647-.004.007-4.479 3.827-4.479 3.827 0-.012.996-7.749 1.381-8.998.107-.405.209-.75.35-1.017-.088-.158-.084-.388.105-.505l.043-.036c.033-.232.303-.362.5-.334.109.019.19.06.279.123.071.048.109.134.139.22h.143l.004-.041h.519l.095-.014.109.014c2.105.007 4.42.081 5.325.77.205.15.437.373.679.624.044.169.425.096.516.181.497.435 1.149 1.306 1.288 1.35-.227-.807-.227-1.681-.088-2.534.011.645.472 1.662.737 2.242.191.393 1.529.54 1.186.029-.343-.498-.741-.963-1.183-1.396-.121-.367-.205-.747-.235-1.134-.022-.335-.506-.335-.52 0l.014.238-.139-.029c.072-.259.111-.516.037-.791-.121-.48-.485-.774-.845-1.064-.025-.096-.071-.189-.187-.276l-.116-.102-.152-.082c-.532-.311-1.376-.566-1.806-.124-.311.321-.598.638-.947.91-4.325.443-7.259-1.936-7.324-2.017-.286-.307-.555-.645-.807-.99-.283-.923-.817-1.825-1.162-2.667l-.459-1.079c-.088-.533-.164-1.072-.193-1.635l-.073-1.315c.064-.526.153-1.044.307-1.576-.015-.577.032-1.136.164-1.69.713-2.992 2.751-5.675 4.918-7.786l.342-.324-.013-.083c.532-1.752 2.919-3.208 4.372-4.107l.016-.018.713-.556c2.446-2.09 5.328-3.813 6.688-1.918l.577-.055.075-.04.047-.004.203-.105 1.013-.234c.229-.042.402.152.451.348.289.023.576.046.873.091.181-.002.25.228.17.372 6.391 0 2.689 3.956 1.32 5.871-1.515 2.103-1.892 4.396-1.696 5.353.181.963-.196 2.872-.761 3.065-2.843.187-7.179 4.018-4.346 7.081 2.839 3.065 7.368.772 6.992-3.449 1.511.386 1.702-1.523 1.323-2.478l-.385-.967s.572-.954 1.149-2.097c.564-1.147 4.668-5.876 6.574-2.163.649.531 1.17 1.334 1.497 2.191 2.766 1.768.514 7.565-.549 9.735-1.679 3.417-3.855 6.441-6.111 9.432 1.688-1.677 3.066-3.378 4.002-3.762.493-.203 1.143-.476 1.742-.74l.32-.226c.854-1.113 1.789-2.165 2.669-3.235-.111-.153-.139-.362 0-.545.793-1.466 1.494-2.849 1.978-4.383-.009-1.11.032-2.233-.059-3.337-.116-1.536-.395-2.925-.909-4.282-1.254-2.502-2.841-5.311-4.485-7.494-3.037-4.021-13.66-9.124-24.223-1.716l.359-.543c-1.098.867-2.151 1.82-3.112 2.851-1.21 1.308-2.33 2.734-3.298 4.277-.316.586-.65 1.178-1.006 1.745l-.029.07c.204-.922.409-1.854.665-2.774 1.456-2.099 3.114-4.095 4.706-6.045.341-.394.691-.789 1.065-1.168.639-.511 1.317-1.008 2.024-1.47.381-.462.77-.89 1.132-1.281l.743-.797c.024-.17.111-.343.285-.483.187-.148.374-.269.572-.382.193-.158.374-.336.551-.526l.165-.127c.336-.311.679-.609 1.031-.89-1.131-.082-2.199-.142-3.279.132-1.999 1.141-3.872 2.757-5.287 4.161l-.039-.617-.105.115-.028-.028.131-.135c-.023-.291-.034-.575-.068-.871.07-.398.186-.801.336-1.19l.215-.259.454-.46c1.512-2.552 3.277-5.908 5.493-8.439-1.499.462-2.938 1.152-4.206 2.282-1.254 1.125-2.29 2.44-3.417 3.679-.438.64-1.026 1.388-1.712 2.214l-.044-.115c-.338.853-.709 1.694-1.314 2.371-.18.203-.534.213-.745.059-.671 1.713-1.211 3.477-1.549 5.229-.021.129-.232.134-.227 0 .061-2.885.549-5.281 1.928-7.829.193-.37.409-.722.616-1.058.274-.595.571-1.177.832-1.724l.155-.304c-.086-.469-.463-.864-.913-.965.758-.846 1.601-1.605 2.483-2.293.308-.45.661-.874 1.032-1.281.823-1.159 1.72-2.221 2.748-3.111-2.416-.018-4.747 1.257-6.613 2.962l-.381.044c-.326.029-.534.184-.65.42-.57.26-1.077.665-1.486 1.174-.126.049-.257.106-.37.196-.377.299-.695.644-.972.994l-.196-.165c.462-.613.927-1.228 1.418-1.844.911-1.089 1.846-2.267 2.866-3.394.234-.021.398-.147.388-.439 1.629-1.733 3.441-3.29 5.549-4.153 2.986-1.234 6.444-1.044 9.704-.927 1.324.901 2.435 2.096 3.78 2.98.196.122.465-.138.332-.347-.605-.957-1.338-1.815-2.165-2.564l.366.007 1.019.002c1.494.954 2.885 2.116 4.284 3.214.745.702 1.49 1.422 2.254 2.096.097.081.24-.017.178-.125l-.417-.749c.086-.066.139-.181.097-.294-.285-.775-.777-1.43-1.383-2.005-.252-.375-.535-.743-.872-1.118l.71.211c.65.628 1.275 1.288 1.881 1.837 2.24 2.017 3.513 5.092 4.96 7.659.149.271.5.073.459-.194-.358-2.213-1.492-4.261-2.866-6.078.118-.05.186-.163.134-.312-.221-.761-.638-1.39-1.081-2.012l.568.056.465.624c1.033 1.4 1.683 3.188 3.155 4.198.257.189.473-.154.381-.386-.519-1.205-1.238-2.44-2.039-3.56.273.175.551.347.812.541 1.625.929 3.13 2.069 4.517 3.194 1.401 1.144 11.17 6.107 10.539 23.233m-49.473 12.243c-.288-.654-.518-1.343-.724-2.042-.034.145-.252.186-.316.052-.071.102-.188.176-.363.142-.412-.063-.487-.63-.485-.956.002-.935.075-1.857.149-2.787-.037-.443-.063-.88-.057-1.328l.015-.058-.127-.722.02-.007.248.62c.069 0 .143.041.151.14l.004.036c.125-.03.311.049.339.207.227 1.097.567 2.088.649 3.162.311 1.159.559 2.339.749 3.484.021.154-.194.186-.252.055m-1.292 5.35c-1.156-1.626-1.655-3.684-2.205-5.589-.569-1.957-1.078-3.957-1.409-5.979-.614-3.822-.862-8.009 1.068-11.512.105-.19.433-.113.376.121-.359 1.283-.534 2.6-.579 3.923.603 2.419.847 4.907 1.251 7.356.363 2.158.861 4.287 1.288 6.42l.038.128c.488 1.562 1.064 3.151 1.068 4.798.004.486-.591.773-.896.335m-4.174-9.365c-.213-.518-.389-1.059-.557-1.607-.025.28-.055.554-.115.825-.092.435-.753.692-1.001.23-1.002-1.856-1.198-4.144-1.499-6.211-.345-2.419-.67-4.843-.708-7.287-.055-4.287.556-8.513 3.295-11.932.107-.145.351.007.26.17-1.045 2.027-1.551 4.288-1.725 6.603.111-.616.241-1.238.418-1.86.047-.197.375-.156.324.071-.799 3.641-.625 7.403-.017 11.058.547 3.256 1.684 6.506 1.935 9.801.019.363-.481.478-.611.138m-6.678-35.704c-.268.119-.525.275-.749.508-.406.849-.818 1.702-1.195 2.56-.459 2.033-.217 4.238-.468 6.275l-.084.135c.025.435.059.897.093 1.348.019.228-.307.32-.392.092-.107-.282-.18-.575-.26-.86l.1 1.026c.013.062-.042.138-.103.165l.347 3.155-.034.092c.61 2.222 1.368 4.402 2.045 6.498.054.186-.216.301-.285.111-1.194-3.256-2.379-6.571-3.002-9.995-.568-3.121-.936-6.676.59-9.594 1.18-2.242 3.198-3.953 5.808-2.872 2.369.967 4.436 2.868 5.893 5.003.369.366.714.692 1.026.958.118.113-.01.328-.151.237l-.442-.293c-.055.178-.257.291-.433.138l-.249-.216c-.023.294-.412.499-.604.195-1.483-2.352-4.87-5.214-7.452-4.665m-3.048 31.01c-3.687-3.792-6.199-8.901-7.763-13.971-.372-1.228-.693-2.442-.957-3.673-.599-4.459-.942-8.715-1.145-12.047.149.019.292.117.336.309.997 4.892 2.292 9.884 3.868 14.636 1.652 4.928 4.213 9.285 6.657 13.834.334.63-.406 1.522-.996.912m-6.073-32.01c.129-.219.516-.121.442.147-.265 1.05-.454 2.131-.533 3.212-.06.963 0 1.962-.229 2.91-.037.201-.38.289-.436.032-.439-1.932-.193-4.533.756-6.3m3.179-3.99c1.367-2.748 3.834-5.385 7.112-5.312 3.079.058 6.198 1.817 7.93 4.418.198.237.387.502.568.74.623.876 1.44 1.878 1.696 2.936l.009.039.139.2c.332.456.689.78.797 1.325l-.057.056c-.398-.109-.638-.355-.859-.661l.012.051c.055.156-.121.269-.255.179-.768-.543-1.32-1.502-1.9-2.304l-.093-.028c-.724-.691-1.369-1.412-2.046-2.1l-.995-.957c-.575-.501-1.19-.968-1.909-1.354-.686-.364-1.494-.751-2.344-1.027-.554-.088-1.131-.097-1.747 0-3.511.615-5.406 4.026-6.267 7.243-1.886 7.004-.931 15.169 1.869 21.795.06.117-.131.192-.188.077-3.406-7.351-5.276-17.732-1.475-25.317m1.204-20.012c.176.188 3.08 6.537 4.149 9.733-.694.14-1.35.545-1.939 1.046-.203.034-.407.133-.582.317l-.058.058c-.997.377-2.071 1.347-3.091 3.128-2.01 3.571 0-15.814 1.522-14.282m14.864 6.633c-.752.756-5.034-1.283-5.537-.25-.509 1.006-5.544-2.051-6.305-6.641-.552-3.351 12.599 6.128 11.842 6.891m-1.256-4.339c3.611 4.074 8.569 4.592 14.114 5.872.394.085.797.19 1.21.309.127.31.472.514.802.542 1.964.157 2.804 2.155 4.608 2.587 1.031.238 2.033.511 3.009.897.177.364-.047.646-.813.764-3.275.514-11.34-1.536-14.618-3.055-3.275-1.543-10.584-10.469-8.313-7.916m16.221 3.897l-.475-.13c-4.842-1.159-8.742-2.53-12.038-4.066 4.634 1.254 8.8 2.67 12.513 4.197m8.142 3.852l-.145-.062-.395-.23.541.292m8.186 9.674c-.321-.106-.657-.21-.997-.288-.414-.079-.839-.152-1.262-.196-.99-.37-1.964-.657-2.984-.965-1.183-.375-2.536-.207-3.752-.424-1.635-.278-3.317-.335-5.003-.205-1.392-.31-2.861-.546-4.695-.546-4.294 0-13.856-8.171-11.335-6.883 3.021 1.518 6.802 2.29 11.84 3.569 5.038 1.276 11.086 1.276 13.611 2.797 1.545.949 3.651 2.262 4.578 3.141m3.978-1.12c-.191-.094-.383-.173-.579-.241-.499-.39-1.008-.765-1.522-1.151-.482-.458-.97-.913-1.515-1.304-.295-.302-.592-.601-.895-.884-.465-.435-.915-.786-1.456-1.083l-.116-.159c2.33 1.598 4.344 3.217 6.082 4.822m-59.745-20.161c-.274.827-.56 1.779-1.099 2.484l-.534.225c-.07-.018-.146-.034-.186-.096-.046-.081-.046-.17-.04-.272l.011-.117.069-.218c-.143-.053-.236-.181-.189-.375l.225-.763c-.063-.432.152-.941.308-1.355 0-.194-.007-.384-.035-.573l-.028-.004c-.163-.028-.281-.139-.281-.352-.014-.62-.157-1.23-.116-1.828l-.002-.098c-.153-.681-.298-1.369-.385-2.066-.021-.167.055-.294.168-.372-.202-.624-.393-1.244-.545-1.863-.078-.314.363-.623.536-.282.897 1.664 1.912 3.426 2.229 5.229.061.025.111.075.145.14.421.768-.007 1.792-.252 2.557m-4.546-4.569c-3.847-4.702-7.77-9.162-12.058-13.453l-.581-.571c-.1.023-.206.01-.299-.09-.362-.386-.702-.808-1.036-1.24-1.439-1.43-2.883-2.867-4.297-4.318-.677-.683-1.363-1.38-2.042-2.086.804.03 1.628.045 2.349-.189.472-.16.476-.815.009-.993.27.033.534.051.802.059.774 1.064 1.522 2.168 2.256 3.235l.236.343.038.028c.843.901 1.711 1.775 2.59 2.646.796.802 1.609 1.614 2.261 2.536.185.255.336.526.468.791 2.626 2.235 5.067 4.638 6.671 7.74.075.149-.036.271-.181.311 1.208 1.589 2.286 3.274 3.17 5.061.114.219-.224.358-.354.189m-13.566-22.342l.068-.021c.441.079.89.138 1.336.119.318.076.647.168.972.263 1.198 1.48 2.433 2.996 3.42 4.614 2.049 3.373 4.339 6.586 6.324 9.992.099.18-.12.425-.271.259-2.321-2.515-4.404-5.337-6.4-8.133l-.45-.529-.027-.019-.043-.059c-1.633-1.911-3.228-3.864-4.895-5.741-.145-.163-.481-.482-.859-.853.273.04.552.083.825.106m4.722-4.981c-.055-.379-.157-.898-.164-1.407.071.094.159.175.261.253.046.041 1.183-2.654 1.227-2.68-.062.812-.954 4.443-.949 5.183.009.358-.008.706-.039 1.034-.011-.241-.048-.469-.08-.703l-.079-.605-.003-.025v-.002l-.013-.092-.161-.957m92.47 87.497c-.729-9.72-4.84-20.219-11.56-29.603-5.836-8.146-18.179-19.134-43.84-25.251l-2.293-.237c-.46-.305-.918-.597-1.344-.898-.364-.127-.717-.264-1.064-.413l-2.547-2.331-1.919-.925c-3.887-4.371-7.041-9.518-10.297-14.369.305 1.84.591 3.689.657 5.546.004.249-.339.281-.374.04-.319-2.247-.82-4.519-1.081-6.801-.808-1.199-1.599-2.447-2.439-3.65l-.157-.157c-.274 1.346-.575 2.693-.969 3.99-.075.26-.416.192-.407-.071.036-.668.114-1.337.21-2.026-.087-1.102-.162-2.207-.21-3.317l-.274-.281-.505-.505c-.32-1.409-9.825-12.539-11.924-11.93-3.725 1.072-.015 8.722 0 8.819-3.111-.869-7.65-.912-9.798-.912-3.936 0-8.33.735-8.655 1.605-1.02 2.764 4.247 6.128 13.67 13.14 9.951 7.413 13.471 13.518 15.722 19.211l4.094-1.053c.009.4-3.025 15.174-3.062 16.998-.108 4.111-.603 8.123-.144 12.23.478 4.219 1.297 8.385 2.475 12.458.311 1.238.663 2.405 1.056 3.514 7.533 23.295 23.959 32.533 29.053 35.407 0 0-.415 5.362.52 4.841.155-.081 3.246-3.107 3.246-3.107s-.835 3.299-.339 3.8c.339.345 5.373-2.952 5.373-2.952l1.778-.29c3.593.942 15.222 1.083 23.423-4.02 10.102-6.286 14.694-16.347 13.924-26.501M142.237 138.119c-.303.798-.315 1.619-.04 1.828.29.218.762-.255 1.065-1.057.303-.802.32-1.619.033-1.842-.279-.206-.751.273-1.058 1.071"/></g></g></svg>